<svg version="1.1" id="Layer_1" xmlns="http://www.w3.org/2000/svg" xmlns:xlink="http://www.w3.org/1999/xlink" x="0px" y="0px"
	 width="100%" viewBox="0 0 400 556" enable-background="new 0 0 400 556" xml:space="preserve">
<path fill="#FEFEFE" opacity="1.000000" stroke="none" 
	d="
M306.000000,0.999999 
	C309.692902,1.000000 313.385834,1.000000 317.401276,1.382919 
	C320.794861,4.012145 321.127991,6.734225 319.279388,9.958140 
	C310.600403,25.093956 301.953369,40.248112 293.296204,55.396446 
	C292.560516,56.683746 291.834229,57.976406 291.103577,59.266579 
	C298.865631,54.109253 305.703064,48.354107 312.611359,42.685268 
	C329.061798,29.186296 346.392334,17.186422 367.457764,11.986828 
	C378.788727,9.190000 390.301971,5.368867 401.000000,14.000000 
	C401.000000,17.361288 401.000000,20.722574 400.637146,24.514359 
	C391.154175,44.473602 377.320465,60.228630 360.771423,73.694901 
	C353.076355,79.956520 344.951813,85.690407 336.843109,91.798241 
	C338.436707,92.095139 339.890289,92.336014 341.330750,92.639008 
	C353.723114,95.245674 366.186188,97.775482 376.886597,105.078423 
	C385.031128,110.636963 385.574554,117.015083 378.842255,124.155754 
	C377.248962,125.845688 375.542603,127.495583 373.651672,128.828140 
	C352.399048,143.804886 328.407593,149.783432 302.756378,150.289749 
	C295.116821,150.440552 287.460175,150.472061 279.849396,151.054703 
	C275.281067,151.404449 274.402710,153.705109 277.168304,157.403885 
	C279.551270,160.590958 282.490479,163.355484 285.047638,166.420380 
	C290.279449,172.690948 289.719360,177.226791 282.379089,180.561569 
	C276.551117,183.209244 270.232300,185.273392 263.922333,186.262161 
	C249.829941,188.470428 236.608368,184.123825 223.546585,179.408234 
	C211.689407,175.127487 199.436569,173.572723 186.915085,174.872223 
	C185.122147,175.058289 183.511703,177.002777 181.816788,178.133484 
	C182.913177,179.668274 183.702515,181.655258 185.166183,182.649185 
	C188.870911,185.164963 193.003769,187.050415 196.707474,189.567459 
	C198.350800,190.684280 200.529388,192.854370 200.357483,194.294846 
	C200.177673,195.801544 197.647949,197.369293 195.829269,198.276825 
	C189.618774,201.375916 182.939941,201.064392 176.362793,199.999802 
	C155.431351,196.611771 136.237518,188.158966 117.193085,179.323471 
	C114.760735,178.194992 112.371506,176.973572 108.971565,175.310623 
	C112.350494,174.508759 114.438644,173.976913 116.542961,173.519394 
	C141.160431,168.167252 165.399368,161.616623 187.982605,150.110275 
	C201.614426,143.164749 214.869797,135.444443 228.698395,128.930069 
	C246.831696,120.387848 265.975983,114.692413 285.708221,110.980530 
	C287.552673,110.633568 289.097626,108.694794 290.781647,107.495110 
	C288.968323,106.841286 287.070343,105.462639 285.356750,105.662811 
	C278.939758,106.412407 272.448853,107.175835 266.227020,108.837708 
	C239.584381,115.954079 214.414246,127.107979 189.622345,138.834991 
	C157.559677,154.001236 124.002327,161.763275 88.770645,163.214737 
	C82.448616,163.475204 76.129013,163.794647 69.892418,164.082977 
	C79.972763,175.577240 90.212326,186.317795 99.345184,197.928833 
	C108.558609,209.642319 116.673843,222.219589 125.393768,234.593750 
	C149.246429,222.572601 174.566788,213.138794 201.425537,208.164352 
	C222.602127,204.242310 243.727570,203.482315 264.358368,210.836563 
	C294.116180,221.444290 305.281708,242.202789 308.461365,271.415924 
	C308.679565,273.420593 306.799683,275.653625 305.895538,277.780426 
	C304.091766,276.617523 301.935669,275.772583 300.547668,274.234497 
	C295.598022,268.749786 289.685730,265.220184 281.650787,263.617126 
	C282.718445,265.736664 283.461884,267.136383 284.138702,268.567596 
	C293.581268,288.535889 303.935638,308.134125 312.241486,328.565002 
	C325.794373,361.902435 331.602997,396.909454 328.997589,432.883972 
	C327.920776,447.752899 324.974426,462.529663 322.199493,477.220093 
	C319.484833,491.591431 315.522827,505.543091 308.279510,518.598938 
	C304.860382,524.761841 303.725403,532.378113 302.469513,539.497131 
	C301.434631,545.363342 302.667725,551.641418 299.000000,557.000000 
	C296.629425,557.000000 294.258881,557.000000 291.725616,556.699463 
	C283.432251,551.044250 274.786163,547.188232 264.922668,546.200867 
	C254.550919,545.162720 243.974319,544.707825 233.917114,542.243591 
	C190.042496,531.493469 150.517365,512.263794 117.253212,481.015930 
	C96.935295,461.929504 80.809677,439.589691 65.436462,416.591156 
	C61.222160,410.286499 57.112747,403.911743 52.579269,396.995667 
	C49.990147,405.371552 50.249603,412.845551 53.182079,420.385406 
	C53.737282,421.812927 53.229141,424.236053 52.264973,425.444427 
	C51.725288,426.120850 48.805672,425.815277 47.706436,424.974335 
	C42.039673,420.639282 36.267326,416.343994 31.175909,411.374878 
	C19.402901,399.884705 13.727797,385.205841 13.679218,369.194458 
	C13.642248,357.009033 17.058161,345.007416 22.310333,333.703552 
	C34.159351,308.201752 52.764847,288.156097 73.787544,270.208801 
	C84.885559,260.734314 96.833733,252.255630 108.555336,243.205933 
	C107.852798,242.224701 106.934692,240.874619 105.949089,239.575745 
	C82.880157,209.175049 52.731224,188.295715 17.667669,174.076065 
	C11.487545,171.569778 5.030415,169.597824 2.123430,162.674789 
	C2.105998,162.633270 1.389862,162.885132 1.000000,163.000000 
	C1.000000,158.310745 1.000000,153.621490 1.301006,148.749268 
	C13.398420,130.032822 23.914562,128.005005 42.080822,140.587219 
	C54.214565,148.991226 67.662140,152.120132 82.243706,149.706711 
	C97.235329,147.225403 110.037445,139.695038 120.497124,129.375137 
	C131.445633,118.572960 140.803360,106.131348 150.604080,94.199081 
	C166.742996,74.550163 183.979645,56.027824 205.906494,42.744312 
	C213.051407,38.415840 221.255219,35.786118 229.104919,32.711861 
	C230.663757,32.101357 232.817078,33.008778 235.551895,33.310684 
	C231.524094,39.565323 228.094772,44.475277 225.112793,49.643337 
	C222.381332,54.377213 219.968567,59.317768 217.773727,64.324348 
	C217.131042,65.790329 217.046127,68.387032 217.927780,69.377029 
	C218.751114,70.301552 221.474869,70.403069 222.874664,69.776970 
	C226.633331,68.095840 230.623215,66.384178 233.641571,63.696667 
	C243.207275,55.179428 252.394455,46.235455 261.685425,37.411652 
	C275.297882,24.483625 287.865875,10.240210 305.717407,2.670514 
	C305.997375,2.551799 305.913879,1.575883 306.000000,0.999999 
z"/>
<path fill="#020202" opacity="0" stroke="none" 
	d="
M299.468658,557.000000 
	C302.667725,551.641418 301.434631,545.363342 302.469513,539.497131 
	C303.725403,532.378113 304.860382,524.761841 308.279510,518.598938 
	C315.522827,505.543091 319.484833,491.591431 322.199493,477.220093 
	C324.974426,462.529663 327.920776,447.752899 328.997589,432.883972 
	C331.602997,396.909454 325.794373,361.902435 312.241486,328.565002 
	C303.935638,308.134125 293.581268,288.535889 284.138702,268.567596 
	C283.461884,267.136383 282.718445,265.736664 281.650787,263.617126 
	C289.685730,265.220184 295.598022,268.749786 300.547668,274.234497 
	C301.935669,275.772583 304.091766,276.617523 305.895538,277.780426 
	C306.799683,275.653625 308.679565,273.420593 308.461365,271.415924 
	C305.281708,242.202789 294.116180,221.444290 264.358368,210.836563 
	C243.727570,203.482315 222.602127,204.242310 201.425537,208.164352 
	C174.566788,213.138794 149.246429,222.572601 125.393768,234.593750 
	C116.673843,222.219589 108.558609,209.642319 99.345184,197.928833 
	C90.212326,186.317795 79.972763,175.577240 69.892418,164.082977 
	C76.129013,163.794647 82.448616,163.475204 88.770645,163.214737 
	C124.002327,161.763275 157.559677,154.001236 189.622345,138.834991 
	C214.414246,127.107979 239.584381,115.954079 266.227020,108.837708 
	C272.448853,107.175835 278.939758,106.412407 285.356750,105.662811 
	C287.070343,105.462639 288.968323,106.841286 290.781647,107.495110 
	C289.097626,108.694794 287.552673,110.633568 285.708221,110.980530 
	C265.975983,114.692413 246.831696,120.387848 228.698395,128.930069 
	C214.869797,135.444443 201.614426,143.164749 187.982605,150.110275 
	C165.399368,161.616623 141.160431,168.167252 116.542961,173.519394 
	C114.438644,173.976913 112.350494,174.508759 108.971565,175.310623 
	C112.371506,176.973572 114.760735,178.194992 117.193085,179.323471 
	C136.237518,188.158966 155.431351,196.611771 176.362793,199.999802 
	C182.939941,201.064392 189.618774,201.375916 195.829269,198.276825 
	C197.647949,197.369293 200.177673,195.801544 200.357483,194.294846 
	C200.529388,192.854370 198.350800,190.684280 196.707474,189.567459 
	C193.003769,187.050415 188.870911,185.164963 185.166183,182.649185 
	C183.702515,181.655258 182.913177,179.668274 181.816788,178.133484 
	C183.511703,177.002777 185.122147,175.058289 186.915085,174.872223 
	C199.436569,173.572723 211.689407,175.127487 223.546585,179.408234 
	C236.608368,184.123825 249.829941,188.470428 263.922333,186.262161 
	C270.232300,185.273392 276.551117,183.209244 282.379089,180.561569 
	C289.719360,177.226791 290.279449,172.690948 285.047638,166.420380 
	C282.490479,163.355484 279.551270,160.590958 277.168304,157.403885 
	C274.402710,153.705109 275.281067,151.404449 279.849396,151.054703 
	C287.460175,150.472061 295.116821,150.440552 302.756378,150.289749 
	C328.407593,149.783432 352.399048,143.804886 373.651672,128.828140 
	C375.542603,127.495583 377.248962,125.845688 378.842255,124.155754 
	C385.574554,117.015083 385.031128,110.636963 376.886597,105.078423 
	C366.186188,97.775482 353.723114,95.245674 341.330750,92.639008 
	C339.890289,92.336014 338.436707,92.095139 336.843109,91.798241 
	C344.951813,85.690407 353.076355,79.956520 360.771423,73.694901 
	C377.320465,60.228630 391.154175,44.473602 400.637146,24.972427 
	C401.000000,202.210892 401.000000,379.421783 401.000000,557.000000 
	C367.313324,557.000000 333.625336,557.000000 299.468658,557.000000 
z"/>
<path fill="#010101" opacity="0.000000" stroke="none" 
	d="
M1.000000,163.468658 
	C1.389862,162.885132 2.105998,162.633270 2.123430,162.674789 
	C5.030415,169.597824 11.487545,171.569778 17.667669,174.076065 
	C52.731224,188.295715 82.880157,209.175049 105.949089,239.575745 
	C106.934692,240.874619 107.852798,242.224701 108.555336,243.205933 
	C96.833733,252.255630 84.885559,260.734314 73.787544,270.208801 
	C52.764847,288.156097 34.159351,308.201752 22.310333,333.703552 
	C17.058161,345.007416 13.642248,357.009033 13.679218,369.194458 
	C13.727797,385.205841 19.402901,399.884705 31.175909,411.374878 
	C36.267326,416.343994 42.039673,420.639282 47.706436,424.974335 
	C48.805672,425.815277 51.725288,426.120850 52.264973,425.444427 
	C53.229141,424.236053 53.737282,421.812927 53.182079,420.385406 
	C50.249603,412.845551 49.990147,405.371552 52.579269,396.995667 
	C57.112747,403.911743 61.222160,410.286499 65.436462,416.591156 
	C80.809677,439.589691 96.935295,461.929504 117.253212,481.015930 
	C150.517365,512.263794 190.042496,531.493469 233.917114,542.243591 
	C243.974319,544.707825 254.550919,545.162720 264.922668,546.200867 
	C274.786163,547.188232 283.432251,551.044250 291.281464,556.699463 
	C194.395172,557.000000 97.790352,557.000000 1.000000,557.000000 
	C1.000000,425.979156 1.000000,294.958252 1.000000,163.468658 
z"/>
<path fill="#010101" opacity="0.000000" stroke="none" 
	d="
M305.531342,0.999999 
	C305.913879,1.575883 305.997375,2.551799 305.717407,2.670514 
	C287.865875,10.240210 275.297882,24.483625 261.685425,37.411652 
	C252.394455,46.235455 243.207275,55.179428 233.641571,63.696667 
	C230.623215,66.384178 226.633331,68.095840 222.874664,69.776970 
	C221.474869,70.403069 218.751114,70.301552 217.927780,69.377029 
	C217.046127,68.387032 217.131042,65.790329 217.773727,64.324348 
	C219.968567,59.317768 222.381332,54.377213 225.112793,49.643337 
	C228.094772,44.475277 231.524094,39.565323 235.551895,33.310684 
	C232.817078,33.008778 230.663757,32.101357 229.104919,32.711861 
	C221.255219,35.786118 213.051407,38.415840 205.906494,42.744312 
	C183.979645,56.027824 166.742996,74.550163 150.604080,94.199081 
	C140.803360,106.131348 131.445633,118.572960 120.497124,129.375137 
	C110.037445,139.695038 97.235329,147.225403 82.243706,149.706711 
	C67.662140,152.120132 54.214565,148.991226 42.080822,140.587219 
	C23.914562,128.005005 13.398420,130.032822 1.301006,148.283142 
	C1.000000,99.047462 1.000000,50.094925 1.000000,1.000000 
	C102.354187,1.000000 203.708435,1.000000 305.531342,0.999999 
z"/>
<path fill="#060606" opacity="0.000000" stroke="none" 
	d="
M401.000000,13.523338 
	C390.301971,5.368867 378.788727,9.190000 367.457764,11.986828 
	C346.392334,17.186422 329.061798,29.186296 312.611359,42.685268 
	C305.703064,48.354107 298.865631,54.109253 291.103577,59.266579 
	C291.834229,57.976406 292.560516,56.683746 293.296204,55.396446 
	C301.953369,40.248112 310.600403,25.093956 319.279388,9.958140 
	C321.127991,6.734225 320.794861,4.012145 317.861908,1.382919 
	C345.666718,1.000000 373.333405,1.000000 401.000000,1.000000 
	C401.000000,5.084651 401.000000,9.065663 401.000000,13.523338 
z"/>
</svg>